<?xml version="1.0" encoding="UTF-8" standalone="no"?>
<!DOCTYPE svg PUBLIC "-//W3C//DTD SVG 1.1//EN" "http://www.w3.org/Graphics/SVG/1.1/DTD/svg11.dtd">
<svg width="100%" height="100%" viewBox="0 0 1308 361" version="1.1" xmlns="http://www.w3.org/2000/svg" xmlns:xlink="http://www.w3.org/1999/xlink" xml:space="preserve" xmlns:serif="http://www.serif.com/" style="fill-rule:evenodd;clip-rule:evenodd;stroke-linejoin:round;stroke-miterlimit:2;">
    <g id="Page-1" serif:id="Page 1" transform="matrix(4.166667,0,0,4.166667,0,0)">
        <rect x="0" y="0" width="313.712" height="86.526" style="fill:none;"/>
        <g id="Layer-1" serif:id="Layer 1">
            <g transform="matrix(1,0,0,1,171.687,51.6661)">
                <path d="M0,-13.423C2.676,-13.423 3.67,-11.435 3.67,-8.833L-4.627,-8.833C-4.093,-11.816 -2.294,-13.423 0,-13.423M-0.153,-17.477C-5.851,-17.477 -10.441,-13.423 -10.441,-6.845C-10.441,0.039 -6.157,4.054 -0.115,4.054C2.944,4.054 5.813,3.136 8.337,1.377L6.004,-2.18C4.284,-1.11 2.371,-0.42 0.306,-0.42C-2.533,-0.42 -4.148,-1.871 -4.634,-4.793L8.606,-4.793C8.76,-5.666 8.986,-6.586 8.986,-8.108C8.986,-13.614 5.736,-17.477 -0.153,-17.477" style="fill:white;fill-rule:nonzero;"/>
            </g>
            <g transform="matrix(1,0,0,1,255.9316,51.6661)">
                <path d="M0,-13.423C2.677,-13.423 3.67,-11.435 3.67,-8.833L-4.627,-8.833C-4.093,-11.816 -2.294,-13.423 0,-13.423M-0.153,-17.477C-5.851,-17.477 -10.44,-13.423 -10.44,-6.845C-10.44,0.039 -6.157,4.054 -0.115,4.054C2.944,4.054 5.813,3.136 8.337,1.377L6.004,-2.18C4.284,-1.11 2.371,-0.42 0.306,-0.42C-2.533,-0.42 -4.148,-1.871 -4.634,-4.793L8.606,-4.793C8.76,-5.666 8.986,-6.586 8.986,-8.108C8.986,-13.614 5.736,-17.477 -0.153,-17.477" style="fill:white;fill-rule:nonzero;"/>
            </g>
            <g transform="matrix(1,0,0,1,277.4009,51.6661)">
                <path d="M0,-13.423C2.676,-13.423 3.67,-11.435 3.67,-8.833L-4.627,-8.833C-4.093,-11.816 -2.295,-13.423 0,-13.423M-0.153,-17.477C-5.852,-17.477 -10.441,-13.423 -10.441,-6.845C-10.441,0.039 -6.157,4.054 -0.115,4.054C2.944,4.054 5.813,3.136 8.337,1.377L6.004,-2.18C4.283,-1.11 2.371,-0.42 0.305,-0.42C-2.534,-0.42 -4.148,-1.871 -4.634,-4.793L8.606,-4.793C8.76,-5.666 8.986,-6.586 8.986,-8.108C8.986,-13.614 5.736,-17.477 -0.153,-17.477" style="fill:white;fill-rule:nonzero;"/>
            </g>
            <g transform="matrix(1,0,0,1,202.6357,44.3138)">
                <path d="M0,-4.951C-2.937,-5.694 -5.473,-6.336 -5.473,-8.517C-5.473,-10.339 -3.735,-11.563 -1.15,-11.563C1.278,-11.563 3.777,-10.969 6.088,-9.844L8.103,-14.125C4.941,-15.601 1.825,-16.319 -1.42,-16.319C-7.175,-16.319 -11.196,-13.079 -11.196,-8.442C-11.196,-2.552 -6.371,-1.297 -2.114,-0.189C0.87,0.587 3.447,1.257 3.447,3.49C3.447,5.446 1.728,6.613 -1.15,6.613C-3.642,6.613 -6.447,5.771 -9.068,4.237L-11.672,8.507C-8.813,10.249 -4.69,11.368 -1.111,11.368C5.23,11.368 9.169,8.32 9.169,3.413C9.169,-2.632 4.085,-3.917 0,-4.951" style="fill:white;fill-rule:nonzero;"/>
            </g>
            <g transform="matrix(1,0,0,1,124.9199,38.245)">
                <path d="M0,13.422C1.721,13.422 3.021,12.696 3.901,11.7L3.901,7.761C0.727,7.954 -2.371,8.755 -2.371,11.356C-2.371,12.58 -1.415,13.422 0,13.422M3.901,4.665L3.901,2.868C3.901,1.338 3.021,0.419 1.071,0.419C-0.879,0.419 -2.945,1.223 -5.469,2.446L-7.457,-1.684C-4.703,-3.06 -1.491,-4.015 1.3,-4.015C7.189,-4.015 9.483,-1.148 9.483,3.059L9.483,11.624C9.483,12.733 10.134,13.231 11.167,13.231L11.167,17.093C7.304,17.093 5.699,16.519 4.551,14.568C2.83,16.404 0.919,17.437 -1.835,17.437C-5.43,17.437 -7.954,15.257 -7.954,12.006C-7.954,7.533 -3.71,5.199 3.901,4.665" style="fill:white;fill-rule:nonzero;"/>
            </g>
            <g transform="matrix(1,0,0,1,139.5513,54.725)">
                <path d="M0,-20.037L5.279,-20.037L5.546,-17.666C7.037,-19.234 9.216,-20.535 11.779,-20.535C16.368,-20.535 18.318,-17.704 18.318,-13.078L18.318,0.498L12.696,0.498L12.696,-13.231C12.696,-15.066 11.932,-16.328 10.019,-16.328C8.299,-16.328 6.808,-15.449 5.584,-13.919L5.584,0.498L0,0.498L0,-20.037Z" style="fill:white;fill-rule:nonzero;"/>
            </g>
            <g transform="matrix(1,0,0,1,216.3638,46.5805)">
                <path d="M0,-7.916L-3.25,-7.916L-3.25,-11.893L0,-11.893L0,-17.017L5.622,-17.017L5.622,-11.893L10.217,-11.893L10.217,-7.916L5.622,-7.916L5.622,2.294C5.622,3.824 6.194,4.589 7.495,4.589C8.527,4.589 9.482,4.245 10.287,3.671L12.352,7.036C10.784,8.26 8.604,9.101 6.347,9.101C2.065,9.101 0,6.998 0,2.409L0,-7.916Z" style="fill:white;fill-rule:nonzero;"/>
            </g>
            <g transform="matrix(1,0,0,1,231.2651,54.649)">
                <path d="M0,-19.961L5.164,-19.961L5.545,-16.787C7.114,-19.541 9.063,-20.535 11.396,-20.535C12.353,-20.535 13.232,-20.381 13.92,-20.115L13.117,-14.99C12.391,-15.257 11.512,-15.449 10.364,-15.449C8.26,-15.449 6.846,-14.149 5.584,-11.777L5.584,0.574L0,0.574L0,-19.961Z" style="fill:white;fill-rule:nonzero;"/>
            </g>
            <g transform="matrix(1,0,0,1,291.2563,46.5805)">
                <path d="M0,-7.916L-3.251,-7.916L-3.251,-11.893L0,-11.893L0,-17.017L5.622,-17.017L5.622,-11.893L10.218,-11.893L10.218,-7.916L5.622,-7.916L5.622,2.294C5.622,3.824 6.195,4.589 7.496,4.589C8.528,4.589 9.483,4.245 10.287,3.671L12.352,7.036C10.784,8.26 8.604,9.101 6.348,9.101C2.064,9.101 0,6.998 0,2.409L0,-7.916Z" style="fill:white;fill-rule:nonzero;"/>
            </g>
            <g transform="matrix(1,0,0,1,107.3105,55.6821)">
                <path d="M0,-27.228L0,-9.408C0,-6.655 -1.339,-5.086 -3.671,-5.086C-5.233,-5.086 -6.465,-5.853 -7.425,-7.156L-11.264,-3.68C-9.285,-1.295 -6.603,0 -3.366,0C2.217,0 5.774,-3.175 5.774,-9.293L5.774,-27.228L0,-27.228Z" style="fill:white;fill-rule:nonzero;"/>
            </g>
            <g transform="matrix(1,0,0,1,65.1206,76.7133)">
                <path d="M0,-65.518C-0.214,-65.664 -0.513,-65.621 -0.663,-65.401L-3.232,-61.673C-3.381,-61.458 -3.36,-61.152 -3.142,-60.996C5.684,-54.706 11.458,-44.394 11.455,-32.754C11.453,-13.642 -4.097,1.903 -23.208,1.902C-42.323,1.902 -57.87,-13.647 -57.869,-32.763C-57.866,-51.873 -42.317,-67.419 -23.203,-67.414C-19.043,-67.418 -15.055,-66.67 -11.354,-65.321L-11.354,-65.324C-11.117,-65.235 -10.843,-65.352 -10.742,-65.601L-9.123,-69.852C-9.032,-70.091 -9.146,-70.362 -9.381,-70.464C-13.694,-72.051 -18.348,-72.926 -23.203,-72.926C-45.352,-72.931 -63.376,-54.911 -63.379,-32.761C-63.379,-10.612 -45.358,7.412 -23.209,7.412C-1.061,7.413 16.963,-10.604 16.963,-32.752C16.963,-46.265 10.256,-58.232 0,-65.518M-6.581,-25.93L-2.565,-23.777C-2.329,-23.652 -2.013,-23.727 -1.913,-23.977C-0.81,-26.63 -0.188,-29.529 -0.163,-32.566C-0.057,-45.28 -10.314,-55.709 -23.028,-55.816L-23.223,-55.817C-35.83,-55.817 -46.172,-45.56 -46.278,-32.952C-46.384,-20.238 -36.127,-9.808 -23.413,-9.701L-23.218,-9.7C-17.197,-9.7 -11.696,-12.042 -7.576,-15.861C-7.375,-16.036 -7.334,-16.347 -7.521,-16.549L-10.947,-19.638C-11.144,-19.816 -11.446,-19.784 -11.631,-19.614C-14.729,-16.877 -18.788,-15.209 -23.218,-15.209L-23.367,-15.21C-33.043,-15.291 -40.849,-23.228 -40.768,-32.905C-40.688,-42.501 -32.817,-50.307 -23.223,-50.307L-23.074,-50.307C-13.397,-50.225 -5.591,-42.287 -5.671,-32.612C-5.689,-30.496 -6.09,-28.469 -6.802,-26.591L-6.801,-26.591C-6.907,-26.328 -6.814,-26.067 -6.581,-25.93M-50.297,-17.471L-46.271,-19.599C-46.029,-19.72 -45.746,-19.612 -45.623,-19.384C-41.045,-11.746 -32.682,-6.628 -23.149,-6.654C-8.755,-6.692 2.924,-18.436 2.885,-32.83C2.845,-47.224 -8.897,-58.902 -23.292,-58.863C-37.686,-58.824 -49.364,-47.081 -49.324,-32.688C-49.32,-31.022 -49.156,-29.394 -48.852,-27.815L-48.854,-27.815C-48.792,-27.55 -48.969,-27.304 -49.221,-27.24L-53.621,-26.143C-53.869,-26.082 -54.132,-26.223 -54.199,-26.481C-54.605,-28.484 -54.828,-30.552 -54.834,-32.674C-54.881,-50.105 -40.738,-64.326 -23.306,-64.373C-5.874,-64.42 8.347,-50.277 8.394,-32.844C8.441,-15.413 -5.702,-1.192 -23.134,-1.144C-34.786,-1.113 -44.996,-7.425 -50.503,-16.818C-50.637,-17.048 -50.533,-17.348 -50.297,-17.471" style="fill:white;fill-rule:nonzero;"/>
            </g>
            <g transform="matrix(1,0,0,1,307.1631,29.9627)">
                <path d="M0,-0.307L0.344,-0.307C0.746,-0.307 1.072,-0.441 1.072,-0.766C1.072,-1.054 0.861,-1.245 0.401,-1.245C0.21,-1.245 0.076,-1.226 0,-1.206L0,-0.307ZM-0.02,1.473L-0.747,1.473L-0.747,-1.666C-0.459,-1.724 -0.058,-1.762 0.46,-1.762C1.053,-1.762 1.321,-1.666 1.551,-1.532C1.723,-1.398 1.857,-1.149 1.857,-0.843C1.857,-0.499 1.589,-0.23 1.205,-0.115L1.205,-0.077C1.513,0.038 1.685,0.268 1.78,0.689C1.876,1.167 1.934,1.359 2.01,1.473L1.225,1.473C1.129,1.359 1.072,1.072 0.977,0.708C0.919,0.363 0.727,0.21 0.325,0.21L-0.02,0.21L-0.02,1.473ZM-1.953,-0.173C-1.953,1.225 -0.919,2.336 0.498,2.336C1.876,2.336 2.891,1.225 2.891,-0.153C2.891,-1.552 1.876,-2.681 0.479,-2.681C-0.919,-2.681 -1.953,-1.552 -1.953,-0.173M3.696,-0.173C3.696,1.608 2.298,3.005 0.479,3.005C-1.322,3.005 -2.757,1.608 -2.757,-0.173C-2.757,-1.915 -1.322,-3.312 0.479,-3.312C2.298,-3.312 3.696,-1.915 3.696,-0.173" style="fill:white;fill-rule:nonzero;"/>
            </g>
        </g>
    </g>
</svg>
